<?xml version="1.0" encoding="UTF-8" standalone="no"?><!DOCTYPE svg PUBLIC "-//W3C//DTD SVG 1.1//EN" "http://www.w3.org/Graphics/SVG/1.1/DTD/svg11.dtd"><svg width="100%" height="100%" viewBox="0 0 80 48" version="1.1" xmlns="http://www.w3.org/2000/svg" xmlns:xlink="http://www.w3.org/1999/xlink" xml:space="preserve" xmlns:serif="http://www.serif.com/" style="fill-rule:evenodd;clip-rule:evenodd;stroke-linejoin:round;stroke-miterlimit:2;"><path d="M22.494,19.302c-0,-0 -0,-9.119 5.775,-12.311l-8.663,0l-5.472,8.663l0,-8.663l-7.143,0l0,33.45l7.143,0l0,-9.423c1.368,-1.063 3.496,-2.279 4.104,-1.063c2.929,6.424 9.354,10.528 16.414,10.486l38.01,0l-0,-6.535l-37.692,0c-7.447,-0.566 -13.043,-7.06 -12.476,-14.507l-0,-0.097Z" style="fill:#fff;fill-rule:nonzero;"/><path d="M37.25,30.411l11.399,-0l-0,-6.384l-9.423,0c-2.708,-0.166 -4.795,-2.459 -4.712,-5.167c-0.18,-2.764 1.934,-5.154 4.698,-5.32l9.437,0l-0,-6.535l-11.399,0c-6.01,0.484 -10.542,5.679 -10.183,11.703c-0.359,6.01 4.173,11.205 10.183,11.703Z" style="fill:#fff;fill-rule:nonzero;"/><path d="M62.783,13.375l9.423,-0l0,-6.384l-10.943,0c-6.01,0.484 -10.542,5.679 -10.183,11.703c-0.345,6.024 4.173,11.219 10.183,11.703l11.399,-0l-0,-6.384l-9.879,0c-2.708,-0.165 -4.794,-2.459 -4.711,-5.167c-0.263,-2.763 1.768,-5.209 4.531,-5.458c0.07,0 0.125,-0.013 0.18,-0.013Z" style="fill:#fff;fill-rule:nonzero;"/><path d="M72.828,1.672c2.763,-0.083 5.084,2.1 5.167,4.863l0,34.058c0,2.778 -2.252,5.016 -5.015,5.016l-66.293,-0c-2.653,-0.166 -4.711,-2.363 -4.711,-5.016l-0,-33.906c-0,-2.653 2.058,-4.849 4.711,-5.015l66.141,-0m-0,-1.672l-66.141,-0c-3.689,-0 -6.687,2.998 -6.687,6.687l0,33.906c0,3.717 2.971,6.757 6.687,6.84l66.141,-0c3.772,-0 6.839,-3.068 6.839,-6.84l0,-33.906c-0.083,-3.716 -3.123,-6.687 -6.839,-6.687Z" style="fill:#fff;fill-rule:nonzero;"/></svg>